<svg width="166" height="56" viewBox="0 0 166 56" fill="none" xmlns="http://www.w3.org/2000/svg">
<g clip-path="url(#clip0_947_8803)">
<path d="M42.9436 41.148C42.9436 41.4158 43.1607 41.6329 43.4285 41.6329H47.652C47.9198 41.6329 48.1369 41.4158 48.1369 41.148V16.1385C48.1369 15.8707 47.9198 15.6536 47.652 15.6536H43.4285C43.1607 15.6536 42.9436 15.8707 42.9436 16.1385V41.148ZM34.8214 37.093C34.8214 37.08 34.8319 37.0695 34.8449 37.0695H39.5298C39.7976 37.0695 40.0148 36.8524 40.0148 36.5845V20.0302C40.0148 19.7623 39.7976 19.5452 39.5298 19.5452H35.3063C35.0385 19.5452 34.8214 19.7623 34.8214 20.0302V37.093ZM26.699 43.0811C26.699 43.0757 26.7033 43.0716 26.7085 43.0716H31.4074C31.6752 43.0716 31.8923 42.8544 31.8923 42.5866V14.0408C31.8923 13.773 31.6752 13.5559 31.4074 13.5559H27.1839C26.9161 13.5559 26.699 13.773 26.699 14.0408V43.0811ZM18.7391 55.4293C18.7389 55.4235 18.7435 55.4189 18.7492 55.4189H23.4473C23.7151 55.4189 23.9322 55.2017 23.9322 54.9339V0.984917C23.9322 0.717106 23.7151 0.5 23.4473 0.5H19.224C18.9562 0.5 18.7391 0.717103 18.7391 0.984914V55.4293ZM10.6166 48.2383C10.6166 48.2326 10.6212 48.2281 10.6267 48.2281H15.3251C15.5929 48.2281 15.81 48.0111 15.81 47.7433V8.38099C15.81 8.11319 15.5929 7.89608 15.3251 7.89608H11.1015C10.8337 7.89608 10.6166 8.11319 10.6166 8.38099V48.2383ZM2.30273 39.9673C2.30273 40.2351 2.51984 40.4522 2.78765 40.4522H7.01119C7.279 40.4522 7.4961 40.2351 7.4961 39.9673V16.6703C7.4961 16.4025 7.279 16.1853 7.01119 16.1853H2.78765C2.51984 16.1853 2.30273 16.4025 2.30273 16.6703V39.9673Z" fill="white"/>
<path d="M61.3239 16.7676L50.9168 22.7867C50.8402 22.831 50.793 22.9127 50.793 23.0012V34.3687C50.793 34.4667 50.8509 34.5556 50.9406 34.5953L61.3478 39.1953C61.5116 39.2677 61.6957 39.1477 61.6957 38.9686V16.982C61.6957 16.7912 61.4891 16.672 61.3239 16.7676Z" fill="white"/>
<path d="M82.7632 31.9496C82.7632 35.0012 80.7047 36.7691 76.1515 36.7691C70.9688 36.7691 68.3047 34.3715 68.3047 30.0848H70.5329C70.5329 33.3543 72.4461 34.9043 76.2 34.9043C79.1547 34.9043 80.5351 33.9598 80.5351 32.0707C80.5351 30.7387 79.6633 29.7215 77.6773 29.2129L72.9062 27.9778C70.218 27.2754 69.1039 25.7254 69.1039 23.6911C69.1039 20.7364 71.2351 19.1622 75.1586 19.1622C79.8085 19.1622 82.2546 21.3903 82.2546 25.0715H80.0023C80.0023 22.359 78.3796 21.0028 75.1586 21.0028C72.6641 21.0028 71.332 21.8504 71.332 23.5942C71.332 24.8051 72.0586 25.7254 73.9234 26.2098L78.646 27.3965C81.4069 28.0989 82.7632 29.6973 82.7632 31.9496ZM91.6438 34.662V36.5027H86.9212C85.7829 36.5027 85.2259 35.9699 85.2259 34.8074V26.3067H82.5619V24.466H85.2259V21.4145L87.3813 20.7606V24.466H91.1595V26.3067H87.3813V34.6863L91.6438 34.662ZM92.5543 26.1371C92.5543 24.9988 93.1113 24.466 94.2496 24.466H101.055V26.3067H94.7097V36.5027H92.5543V26.1371ZM100.449 30.3269C100.449 26.4278 102.774 24.2239 106.213 24.2239C109.774 24.2239 112.098 26.3793 112.098 30.109V30.8839H102.532C102.605 33.2332 103.84 35.0254 106.335 35.0254C108.393 35.0254 109.604 33.9598 110.016 32.2887H112.147C111.663 34.5168 110.064 36.7448 106.359 36.7448C102.435 36.7448 100.449 33.8871 100.449 30.3269ZM102.557 29.3582H109.991C109.847 27.1785 108.369 25.9192 106.213 25.9192C104.227 25.9192 102.726 27.1785 102.557 29.3582ZM112.85 33.1605C112.85 31.2473 114.012 29.9152 116.87 29.6489L121.593 29.1887C121.496 27.009 120.503 25.9677 118.372 25.9677C116.701 25.9677 115.442 26.7426 115.247 28.7527H113.116C113.383 26.0161 115.223 24.2239 118.347 24.2239C121.859 24.2239 123.748 26.3793 123.748 29.552V34.662H125.517V36.5027H123.313C122.392 36.5027 121.859 35.9699 121.859 35.0496V34.4684L122.198 33.1847H121.593C121.132 35.0254 119.85 36.7448 116.919 36.7448C113.383 36.7448 112.85 34.4199 112.85 33.1605ZM114.981 32.8942C114.981 34.2746 115.877 34.9769 117.258 34.9769C119.873 34.9769 121.593 33.1363 121.593 30.7145L117.234 31.1746C115.757 31.32 114.981 31.7317 114.981 32.8942ZM126.066 36.5027V24.466H128.222V26.4278L127.859 27.8809H128.464C128.948 25.7012 130.183 24.2239 132.75 24.2239C134.954 24.2239 136.069 25.7254 136.359 27.8809H136.746C137.231 25.7012 138.466 24.2239 141.033 24.2239C143.601 24.2239 144.787 26.2825 144.787 29.0192V36.5027H142.632V29.4793C142.632 27.1543 142.123 26.0644 140.209 26.0644C137.861 26.0644 136.504 28.1473 136.504 31.2957V36.5027H134.349V29.4793C134.349 27.1543 133.841 26.0644 131.927 26.0644C129.578 26.0644 128.222 28.1473 128.222 31.2957V36.5027H126.066ZM152.162 20.5427C150.635 20.5427 150.175 21.4387 150.175 22.9645V24.466H157.465C158.603 24.466 159.088 24.9747 159.088 26.1371V34.662H162.43V36.5027H145.404V34.662H148.044V26.3067H145.404V24.466H148.044V22.9403C148.044 20.3973 149.279 18.702 152.258 18.702H157.659V20.5427H152.162ZM150.175 34.662H156.932V26.3067H150.175V34.662Z" fill="white"/>
</g>
<defs>
<clipPath id="clip0_947_8803">
<rect width="165" height="55" fill="white" transform="translate(0.271484 0.5)"/>
</clipPath>
</defs>
</svg>
