<svg width="61" height="60" viewBox="0 0 61 60" fill="none" xmlns="http://www.w3.org/2000/svg">
<path fill-rule="evenodd" clip-rule="evenodd" d="M48.3614 29.9007C48.3614 39.8447 40.2891 47.9807 30.4224 47.9807C20.5563 47.9807 12.484 39.8447 12.484 29.9007C12.484 17.8735 24.0324 9.23901 35.3555 12.4984L38.9433 8.88281C23.8123 3.79617 8 13.1766 8 29.9007C8 42.3304 18.0899 52.5 30.4224 52.5C42.7548 52.5 52.8453 42.3305 52.8453 29.9007L48.3614 29.9007ZM52.3179 16.2483C54.4038 14.146 51.2323 10.95 49.147 13.0519L29.4342 32.9191L21.3392 24.7607C19.2532 22.6589 16.0823 25.8554 18.1677 27.9572L27.8487 37.7135C28.7242 38.596 30.1446 38.596 31.0201 37.7135L52.3179 16.2483Z" fill="#5A189A"/>
</svg>
